<?xml version="1.0" encoding="UTF-8" standalone="no"?>
<!DOCTYPE svg PUBLIC "-//W3C//DTD SVG 1.1//EN" "http://www.w3.org/Graphics/SVG/1.1/DTD/svg11.dtd">
<svg version="1.1" xmlns="http://www.w3.org/2000/svg" xmlns:xlink="http://www.w3.org/1999/xlink" preserveAspectRatio="xMidYMid meet" viewBox="0 0 220 180" width="220" height="180"><defs><path d="" id="feVS9XZU4"></path><path d="" id="brZLyRamJ"></path><path d="M41.28 170L10 170L10 10L41.28 10" id="c9BwhJ0TZS"></path><path d="M176.81 170L210 170L210 10L176.81 10" id="a3NG2v2F5T"></path><path d="M177.23 25C182.75 25 187.23 29.48 187.23 35C187.23 59 187.23 121 187.23 145C187.23 150.52 182.75 155 177.23 155C147.96 155 70.13 155 40.85 155C35.33 155 30.85 150.52 30.85 145C30.85 121 30.85 59 30.85 35C30.85 29.48 35.33 25 40.85 25C70.13 25 147.96 25 177.23 25Z" id="a9b5p2TzCv"></path><path d="M177.23 45C182.75 45 187.23 49.48 187.23 55C187.23 75 187.23 125 187.23 145C187.23 150.52 182.75 155 177.23 155C147.96 155 70.13 155 40.85 155C35.33 155 30.85 150.52 30.85 145C30.85 125 30.85 75 30.85 55C30.85 49.48 35.33 45 40.85 45C70.13 45 147.96 45 177.23 45Z" id="cSQxMVFNo"></path><path d="M176.81 35C176.81 37.76 174.47 40 171.59 40C168.72 40 166.38 37.76 166.38 35C166.38 32.24 168.72 30 171.59 30C174.47 30 176.81 32.24 176.81 35Z" id="e4jrzUsFYe"></path><path d="M161.17 35C161.17 37.76 158.83 40 155.96 40C153.08 40 150.74 37.76 150.74 35C150.74 32.24 153.08 30 155.96 30C158.83 30 161.17 32.24 161.17 35Z" id="eVrGDt9bU"></path><path d="M145.53 35C145.53 37.76 143.19 40 140.32 40C137.44 40 135.1 37.76 135.1 35C135.1 32.24 137.44 30 140.32 30C143.19 30 145.53 32.24 145.53 35Z" id="c1DF4ol7W3"></path><path d="M65.6 65L81.24 65L81.24 130L65.6 130L65.6 65Z" id="d3feVu9EBz"></path><path d="M81.24 130L122.94 65L107.3 65L65.6 130L81.24 130Z" id="d1GVEoRgbd"></path><path d="M107.48 65L123.12 65L123.12 130L107.48 130L107.48 65Z" id="cGhkShK0r"></path><path d="M123.29 130L164.99 65L149.35 65L107.65 130L123.29 130Z" id="aptXyeu1C"></path><path d="" id="a13seK9Xcz"></path></defs><g><g><g><g><use xlink:href="#feVS9XZU4" opacity="1" fill-opacity="0" stroke="#000000" stroke-width="1" stroke-opacity="1"></use></g></g><g><g><use xlink:href="#brZLyRamJ" opacity="1" fill-opacity="0" stroke="#000000" stroke-width="1" stroke-opacity="1"></use></g></g><g><g><use xlink:href="#c9BwhJ0TZS" opacity="1" fill-opacity="0" stroke="#2e2726" stroke-width="2" stroke-opacity="1"></use></g></g><g><g><use xlink:href="#a3NG2v2F5T" opacity="1" fill-opacity="0" stroke="#2e2726" stroke-width="2" stroke-opacity="1"></use></g></g><g><use xlink:href="#a9b5p2TzCv" opacity="1" fill="#2e2726" fill-opacity="1"></use></g><g><use xlink:href="#cSQxMVFNo" opacity="1" fill="#dfdfdf" fill-opacity="1"></use></g><g><use xlink:href="#e4jrzUsFYe" opacity="1" fill="#ff0000" fill-opacity="1"></use></g><g><use xlink:href="#eVrGDt9bU" opacity="1" fill="#ff6f00" fill-opacity="1"></use></g><g><use xlink:href="#c1DF4ol7W3" opacity="1" fill="#00d627" fill-opacity="1"></use></g><g><use xlink:href="#d3feVu9EBz" opacity="1" fill="#4405b7" fill-opacity="1"></use><g><use xlink:href="#d3feVu9EBz" opacity="1" fill-opacity="0" stroke="#000000" stroke-width="1" stroke-opacity="1"></use></g></g><g><use xlink:href="#d1GVEoRgbd" opacity="1" fill="#17211d" fill-opacity="1"></use><g><use xlink:href="#d1GVEoRgbd" opacity="1" fill-opacity="0" stroke="#000000" stroke-width="1" stroke-opacity="1"></use></g></g><g><use xlink:href="#cGhkShK0r" opacity="1" fill="#4405b7" fill-opacity="1"></use><g><use xlink:href="#cGhkShK0r" opacity="1" fill-opacity="0" stroke="#000000" stroke-width="1" stroke-opacity="1"></use></g></g><g><use xlink:href="#aptXyeu1C" opacity="1" fill="#17211d" fill-opacity="1"></use><g><use xlink:href="#aptXyeu1C" opacity="1" fill-opacity="0" stroke="#000000" stroke-width="1" stroke-opacity="1"></use></g></g><g><g><use xlink:href="#a13seK9Xcz" opacity="1" fill-opacity="0" stroke="#000000" stroke-width="1" stroke-opacity="1"></use></g></g></g></g></svg>